HIERARCHY
ROOT Hips
{
	OFFSET 0.00000 0.00000 0.00000
	CHANNELS 6 Xposition Yposition Zposition Yrotation Zrotation Xrotation 
	JOINT Lumbar
	{
		OFFSET 0 0 0
		CHANNELS 3 Zrotation Xrotation Yrotation
		JOINT Neck
		{
			OFFSET 0.00 0.2701 0.00
			CHANNELS 3 Zrotation Xrotation Yrotation
			End Site
			{
				OFFSET 0.00 0.1379 0.00
			}
		}
		JOINT RightShoulder
		{
			OFFSET 0.0119 0.2289 0.1181
			CHANNELS 3 Zrotation Xrotation Yrotation
			JOINT RightElbow
			{
				OFFSET 0.00 -0.1475 0.00
				CHANNELS 2 Zrotation Yrotation
				JOINT RightWrist
				{
					OFFSET 0.00 -0.1605 0.00
					CHANNELS 2 Zrotation Xrotation
					End Site
					{
						OFFSET 0.0040 -0.1068 0.0006
					}
				}
			}
		}
		JOINT LeftShoulder
		{
			OFFSET 0.0119 0.2289 -0.1181
			CHANNELS 3 Zrotation Xrotation Yrotation
			JOINT LeftElbow
			{
				OFFSET 0.00 -0.1475 0.00
				CHANNELS 2 Zrotation Yrotation
				JOINT LeftWrist
				{
					OFFSET 0.00 -0.1605 0.00
					CHANNELS 2 Zrotation Xrotation
					End Site
					{
						OFFSET 0.0040 -0.1068 -0.0006
					}
				}
			}
		}
	}
	JOINT RightHip
	{
		OFFSET 0.0316 -0.0424 0.0458
		CHANNELS 3 Zrotation Xrotation Yrotation
		JOINT RightKnee
		{
			OFFSET 0.00 -0.2438 0.00
			CHANNELS 1 Zrotation
			JOINT RightAnkle
			{
				OFFSET 0.00 -0.2449 0.00
				CHANNELS 3 Zrotation Xrotation Yrotation
				End Site
				{
					OFFSET 0.1237 -0.0542 0.0051
				}
			}
		}
	}
	JOINT LeftHip
	{
		OFFSET 0.0316 -0.0424 -0.0458
		CHANNELS 3 Zrotation Xrotation Yrotation
		JOINT LeftKnee
		{
			OFFSET 0.00 -0.2438 0.00
			CHANNELS 1 Zrotation
			JOINT LeftAnkle
			{
				OFFSET 0.00 -0.2449 0.00
				CHANNELS 3 Zrotation Xrotation Yrotation
				End Site
				{
					OFFSET 0.1237 -0.0542 -0.0051
				}
			}
		}
	}
}
MOTION
Frames: 14
Frame Time: 0.02
-0 0.57926 0 179.09789 0 -3.94161 4.33197 3.779 -0.57258 -36.55962 2.43956 0.86854 8.56561 -71.31762 -90.01567 21.91708 77.37747 -21.02712 -2.94407 26.66673 63.12161 68.60992 20.09438 -84.24732 -23.71919 4.02829 -3.259 6.70296 -6.21175 -7.92101 0.13726 -4.77114 -10.61794 -2.46706 3.18949 3.49448 -6.63448 5.46003 6.23585 10.33931
0.00065 0.57923 -2e-05 179.08861 0 -3.94771 4.28503 3.83482 -0.44572 -36.63488 2.24589 0.87945 10.81403 -70.95026 -88.16774 21.88668 77.89015 -20.78012 -3.0251 28.49528 63.2562 66.3407 20.52461 -83.95236 -23.88803 4.06107 -3.1884 6.71131 -6.17639 -7.93272 0.14535 -4.77529 -10.64472 -2.38425 3.19902 3.51486 -6.67387 5.47155 6.24392 10.33342
0.0013 0.57919 -4e-05 179.07981 0 -3.95378 4.23835 3.89036 -0.31962 -36.70844 2.05308 0.89024 13.06085 -70.58299 -86.31313 21.85777 78.40203 -20.53198 -3.10663 30.32273 63.38897 64.06665 20.95496 -83.66318 -24.05611 4.09374 -3.11802 6.71963 -6.14171 -7.94439 0.15345 -4.77945 -10.67122 -2.30164 3.20855 3.53482 -6.71299 5.48297 6.25197 10.32744
0.00195 0.57916 -6e-05 179.07226 0 -3.95982 4.19235 3.94536 -0.19537 -36.77651 1.86183 0.90054 15.31432 -70.21598 -84.43123 21.83267 78.90431 -20.27443 -3.19004 32.15431 63.51917 61.76891 21.38663 -83.38986 -24.21962 4.12547 -3.04815 6.72793 -6.10932 -7.95572 0.16163 -4.78359 -10.69634 -2.21968 3.21812 3.55384 -6.75088 5.49412 6.26004 10.32105
0.0026 0.57912 -8e-05 179.05742 0 -3.96605 4.14284 4.00326 -0.06141 -36.87436 1.66229 0.9133 17.52194 -69.85189 -82.7149 21.78517 79.44365 -20.06366 -3.26238 33.95289 63.66716 59.618 21.80721 -83.02726 -24.40349 4.16116 -2.97598 6.73637 -6.06468 -7.96848 0.16938 -4.78774 -10.72816 -2.13503 3.22742 3.57851 -6.79467 5.50671 6.26804 10.31681
0.00325 0.57908 -0.0001 179.05846 0 -3.97186 4.10077 4.05495 0.05196 -36.90867 1.48051 0.92093 19.83154 -69.47905 -80.63586 21.78661 79.91341 -19.75626 -3.35885 35.82702 63.77456 57.14423 22.25361 -82.85741 -24.54672 4.18911 -2.90844 6.7445 -6.04604 -7.97846 0.17805 -4.79193 -10.74616 -2.05565 3.23729 3.59075 -6.82636 5.51625 6.27613 10.30805
0.00387 0.57904 -0.00012 179.1012 0 -3.97681 4.07909 4.09042 0.10892 -36.76594 1.34403 0.91353 22.43589 -69.09374 -77.57906 21.91558 80.11952 -19.1475 -3.52076 37.90478 63.7906 53.79935 22.76376 -83.20526 -24.55599 4.19005 -2.85477 6.75188 -6.10121 -7.97876 0.18944 -4.79572 -10.72175 -1.99329 3.24911 3.57152 -6.82058 5.51703 6.28522 10.28589
0.00448 0.57899 -0.00016 179.16043 0 -3.9813 4.06491 4.11949 0.14509 -36.55929 1.22594 0.90107 25.14263 -68.69603 -74.14824 22.09555 80.26936 -18.44792 -3.70754 40.06073 63.76078 50.12224 23.30228 -83.75092 -24.52838 4.18418 -2.8055 6.75893 -6.18242 -7.97665 0.20177 -4.79963 -10.68409 -1.93572 3.26145 3.53926 -6.80329 5.51479 6.29426 10.25921
0.0051 0.57894 -0.00018 179.21357 0 -3.98583 4.04742 4.15093 0.19053 -36.38261 1.10175 0.89155 27.79868 -68.29718 -70.86905 22.25727 80.49094 -17.81021 -3.88378 42.18854 63.7398 46.57789 23.83296 -84.21585 -24.53162 4.18511 -2.75346 6.76606 -6.25039 -7.9769 0.21357 -4.80388 -10.65531 -1.87423 3.27329 3.511 -6.79389 5.51414 6.30284 10.23529
0.00571 0.57889 -0.00022 179.26072 0 -3.9911 4.02962 4.18467 0.23663 -36.20168 0.96826 0.87952 30.47631 -67.93108 -67.66777 22.39804 80.51513 -17.08129 -4.05632 44.29034 63.77387 43.10588 24.34081 -84.64145 -24.47484 4.17048 -2.70472 6.7735 -6.32393 -7.97168 0.22572 -4.80656 -10.61471 -1.82006 3.28621 3.49059 -6.77336 5.51256 6.31349 10.20879
0.00633 0.57885 -0.00024 179.32436 0 -3.9947 4.01413 4.21207 0.27653 -36.01489 0.85826 0.87128 33.12781 -67.4887 -64.21528 22.59473 80.94023 -16.52625 -4.24307 46.458 63.67686 39.41061 24.90476 -85.19675 -24.53501 4.18651 -2.65008 6.78019 -6.3925 -7.97746 0.23745 -4.8124 -10.59525 -1.75182 3.29705 3.45107 -6.77317 5.51219 6.3198 10.18612
0.00698 0.57882 -0.00025 179.42861 0 -3.99373 4.00405 4.22359 0.30348 -35.82309 0.81055 0.8765 35.72901 -66.88022 -60.16105 22.93122 82.45935 -16.42518 -4.4577 48.84619 63.27518 35.12467 25.59972 -86.0556 -24.92159 4.29035 -2.57875 6.7851 -6.43693 -8.01282 0.24711 -4.82813 -10.64041 -1.64315 3.30167 3.35901 -6.83282 5.51582 6.31423 10.17914
0.00764 0.57879 -0.00026 179.54905 0 -3.9911 3.99577 4.22893 0.32501 -35.62827 0.78542 0.88524 38.2903 -66.18627 -55.8679 23.32208 84.3886 -16.51042 -4.68672 51.28556 62.73369 30.6365 26.35204 -87.0397 -25.42837 4.42513 -2.50123 6.78921 -6.47611 -8.0596 0.2564 -4.84683 -10.70684 -1.52023 3.30424 3.24868 -6.91316 5.52075 6.30427 10.17548
0.0083 0.57877 -0.00027 179.66261 0 -3.98928 3.98625 4.23705 0.34974 -35.43795 0.74872 0.89137 40.841 -65.50596 -51.68226 23.69015 86.14807 -16.54317 -4.91263 53.66579 62.22714 26.27622 27.09091 -87.96997 -25.88356 4.54459 -2.4261 6.79352 -6.52046 -8.1021 0.26634 -4.86337 -10.76142 -1.40404 3.30799 3.14876 -6.98352 5.5252 6.29627 10.16763
